D:\school\WTK\thesis\model\3dpredictsim\Results\batch_windlass\Pog_s1_tmt_aCst_d05_k1000_WL20_ig24_pas_GRF.mot
nRows=27
nColumns=19

name D:\school\WTK\thesis\model\3dpredictsim\Results\batch_windlass\Pog_s1_tmt_aCst_d05_k1000_WL20_ig24_pas_GRF.mot
datacolumns 19
datarows 27
range 0.5360919144 0.8148597098
endheader
time 	ground_force_vx	ground_force_vy	ground_force_vz	ground_force_px	ground_force_py	ground_force_pz	1_ground_force_vx	1_ground_force_vy	1_ground_force_vz	1_ground_force_px	1_ground_force_py	1_ground_force_pz	ground_torque_x	ground_torque_y	ground_torque_z	1_ground_torque_x	1_ground_torque_y	1_ground_torque_z
        0.5360919144	       90.3337258885	      449.5120839394	        3.5747655531	        0.3395546620	        0.0000000000	        0.0357869753	      -98.0422027875	       78.8616065410	      -30.6241089864	        0.8067394901	        0.0000000000	       -0.0413595630	        0.0000000000	        0.0000000000	        0.0000000000	        0.0000000000	        0.0000000000	        0.0000000000	
        0.5468137527	       68.4640960897	      366.1457102806	        9.8889486734	        0.3444850182	        0.0000000000	        0.0339953053	     -144.5730501005	      158.7959828231	      -70.1020501278	        0.8173216959	        0.0000000000	       -0.0402917442	        0.0000000000	        0.0000000000	        0.0000000000	        0.0000000000	        0.0000000000	        0.0000000000	
        0.5575355909	       39.9506603569	      267.9819353061	       12.3240512971	        0.3528774505	        0.0000000000	        0.0302667611	      -65.6759939550	      350.3289697491	      -28.8826753025	        0.8311876187	        0.0000000000	       -0.0411123440	        0.0000000000	        0.0000000000	        0.0000000000	        0.0000000000	        0.0000000000	        0.0000000000	
        0.5682574292	       17.1220394851	      179.6694627297	       11.1293911766	        0.3663118875	        0.0000000000	        0.0232663954	      -63.7864445473	      574.2286828111	        2.1846619355	        0.8389742927	        0.0000000000	       -0.0424934289	        0.0000000000	        0.0000000000	        0.0000000000	        0.0000000000	        0.0000000000	        0.0000000000	
        0.5789792675	        2.7856511420	      144.9502302675	       11.4908928966	        0.3699301061	        0.0000000000	        0.0209918119	      -87.5012483792	      753.1335015259	       11.4001904749	        0.8460882981	        0.0000000000	       -0.0430985251	        0.0000000000	        0.0000000000	        0.0000000000	        0.0000000000	        0.0000000000	        0.0000000000	
        0.5897011058	       -1.5332738789	      109.8718358204	       11.6588259874	        0.3702310751	        0.0000000000	        0.0210734149	     -115.0501086298	      864.0245657474	       13.1024260960	        0.8543679366	        0.0000000000	       -0.0430152829	        0.0000000000	        0.0000000000	        0.0000000000	        0.0000000000	        0.0000000000	        0.0000000000	
        0.6004229441	       -9.8308994420	       68.5069713644	       10.5541730993	        0.3700735341	        0.0000000000	        0.0211762576	     -120.2424333591	      902.5298368598	       12.9172449442	        0.8621857757	        0.0000000000	       -0.0424188446	        0.0000000000	        0.0000000000	        0.0000000000	        0.0000000000	        0.0000000000	        0.0000000000	
        0.6111447824	       -9.7177815183	       22.9964784082	        4.4677386221	        0.3697962059	        0.0000000000	        0.0209647983	     -112.1323161184	      877.3269511081	       11.2984564210	        0.8667289401	        0.0000000000	       -0.0419299567	        0.0000000000	        0.0000000000	        0.0000000000	        0.0000000000	        0.0000000000	        0.0000000000	
        0.6218666207	        0.1432671132	       -0.1410474824	       -0.0050903406	        0.0000000000	        0.0000000000	        0.0000000000	      -97.0779003464	      832.0623013697	       11.6262913436	        0.8699106406	        0.0000000000	       -0.0415501492	        0.0000000000	        0.0000000000	        0.0000000000	        0.0000000000	        0.0000000000	        0.0000000000	
        0.6325884590	        0.0005393939	       -0.0004375599	        0.0000198668	        0.0000000000	        0.0000000000	        0.0000000000	      -82.7168842192	      784.9678510298	       12.9651845695	        0.8728451276	        0.0000000000	       -0.0412789029	        0.0000000000	        0.0000000000	        0.0000000000	        0.0000000000	        0.0000000000	        0.0000000000	
        0.6433102972	        0.0001916892	       -0.0001346733	        0.0000111199	        0.0000000000	        0.0000000000	        0.0000000000	      -69.7288897664	      742.3858635140	       13.7486808246	        0.8757411855	        0.0000000000	       -0.0411270181	        0.0000000000	        0.0000000000	        0.0000000000	        0.0000000000	        0.0000000000	        0.0000000000	
        0.6540321355	        0.0009671726	       -0.0006094548	        0.0000661714	        0.0000000000	        0.0000000000	        0.0000000000	      -58.1792043377	      705.2032368999	       14.7602862512	        0.8787927324	        0.0000000000	       -0.0410638773	        0.0000000000	        0.0000000000	        0.0000000000	        0.0000000000	        0.0000000000	        0.0000000000	
        0.6647539738	        0.0106131957	       -0.0061457199	        0.0007966377	        0.0000000000	        0.0000000000	        0.0000000000	      -48.1195930085	      673.5024646267	       15.6091697298	        0.8822422690	        0.0000000000	       -0.0410698327	        0.0000000000	        0.0000000000	        0.0000000000	        0.0000000000	        0.0000000000	        0.0000000000	
        0.6754758121	       -0.0442687443	        0.0239589005	       -0.0035368524	        0.0000000000	        0.0000000000	        0.0000000000	      -39.4802285237	      648.1102373604	       16.9433183208	        0.8866507983	        0.0000000000	       -0.0411020548	        0.0000000000	        0.0000000000	        0.0000000000	        0.0000000000	        0.0000000000	        0.0000000000	
        0.6861976504	       -0.0336303728	        0.0171983790	       -0.0028284624	        0.0000000000	        0.0000000000	        0.0000000000	      -33.2843548194	      628.4496888607	       18.2089413749	        0.8918692621	        0.0000000000	       -0.0411269781	        0.0000000000	        0.0000000000	        0.0000000000	        0.0000000000	        0.0000000000	        0.0000000000	
        0.6969194887	       -0.0218063174	        0.0106145819	       -0.0019136469	        0.0000000000	        0.0000000000	        0.0000000000	      -28.9201477681	      613.5342267587	       18.8989482253	        0.8973881662	        0.0000000000	       -0.0411398983	        0.0000000000	        0.0000000000	        0.0000000000	        0.0000000000	        0.0000000000	        0.0000000000	
        0.7076413270	       -0.0169553765	        0.0079041456	       -0.0015340419	        0.0000000000	        0.0000000000	        0.0000000000	      -25.1565398268	      602.7321965644	       19.4077728660	        0.9031439469	        0.0000000000	       -0.0411332694	        0.0000000000	        0.0000000000	        0.0000000000	        0.0000000000	        0.0000000000	        0.0000000000	
        0.7183631653	       -0.0169414557	        0.0076032582	       -0.0015601282	        0.0000000000	        0.0000000000	        0.0000000000	      -22.2537448808	      594.8297742890	       19.4132625389	        0.9090031430	        0.0000000000	       -0.0411051669	        0.0000000000	        0.0000000000	        0.0000000000	        0.0000000000	        0.0000000000	        0.0000000000	
        0.7290850035	       -0.0215944640	        0.0093704545	       -0.0020006346	        0.0000000000	        0.0000000000	        0.0000000000	      -20.0508610668	      589.0279713854	       19.0284476092	        0.9147452475	        0.0000000000	       -0.0410605878	        0.0000000000	        0.0000000000	        0.0000000000	        0.0000000000	        0.0000000000	        0.0000000000	
        0.7398068418	       -0.0334973507	        0.0141077252	       -0.0030954496	        0.0000000000	        0.0000000000	        0.0000000000	      -18.5538582940	      585.6077446257	       18.6605659245	        0.9204575345	        0.0000000000	       -0.0409928855	        0.0000000000	        0.0000000000	        0.0000000000	        0.0000000000	        0.0000000000	        0.0000000000	
        0.7505286801	       -0.0591697506	        0.0242764556	       -0.0054279185	        0.0000000000	        0.0000000000	        0.0000000000	      -17.5238881407	      583.5540772234	       18.1875790814	        0.9260103112	        0.0000000000	       -0.0409078202	        0.0000000000	        0.0000000000	        0.0000000000	        0.0000000000	        0.0000000000	        0.0000000000	
        0.7612505184	       -0.1106782627	        0.0443977625	       -0.0100518197	        0.0000000000	        0.0000000000	        0.0000000000	      -16.2996268500	      581.3463170309	       17.9820088674	        0.9313240512	        0.0000000000	       -0.0408122979	        0.0000000000	        0.0000000000	        0.0000000000	        0.0000000000	        0.0000000000	        0.0000000000	
        0.7719723567	       -0.2054533540	        0.0808614342	       -0.0184497164	        0.0000000000	        0.0000000000	        0.0000000000	      -14.5326412341	      578.0911609749	       17.9284980379	        0.9364214613	        0.0000000000	       -0.0407103174	        0.0000000000	        0.0000000000	        0.0000000000	        0.0000000000	        0.0000000000	        0.0000000000	
        0.7826941950	       -0.3600155122	        0.1394939815	       -0.0319696506	        0.0000000000	        0.0000000000	        0.0000000000	      -12.4375941368	      573.7139739124	       17.7345551873	        0.9413627740	        0.0000000000	       -0.0406020981	        0.0000000000	        0.0000000000	        0.0000000000	        0.0000000000	        0.0000000000	        0.0000000000	
        0.7934160333	       -0.5735575235	        0.2195202407	       -0.0502645758	        0.0000000000	        0.0000000000	        0.0000000000	      -10.0480534232	      568.6487618555	       17.6611119926	        0.9462383191	        0.0000000000	       -0.0404773681	        0.0000000000	        0.0000000000	        0.0000000000	        0.0000000000	        0.0000000000	        0.0000000000	
        0.8041378716	       -0.8184317526	        0.3103485399	       -0.0704404744	        0.0000000000	        0.0000000000	        0.0000000000	       -7.4394152437	      562.9232260572	       17.4066439476	        0.9510579676	        0.0000000000	       -0.0403354353	        0.0000000000	        0.0000000000	        0.0000000000	        0.0000000000	        0.0000000000	        0.0000000000	
        0.8148597098	       -1.0507564106	        0.3957158066	       -0.0881170351	        0.0000000000	        0.0000000000	        0.0000000000	       -4.5028282168	      556.5924066725	       16.6545143140	        0.9558402890	        0.0000000000	       -0.0401764073	        0.0000000000	        0.0000000000	        0.0000000000	        0.0000000000	        0.0000000000	        0.0000000000	
